<?xml version="1.0" encoding="UTF-8"?>
<svg version="1.1" xmlns="http://www.w3.org/2000/svg" width="40" height="40">
<path d="M0 0 C5.99716788 4.31403902 11.57722641 8.98366704 17 14 C17.58136719 14.53238281 18.16273437 15.06476562 18.76171875 15.61328125 C20 17 20 17 20 19 C18.35 19.33 16.7 19.66 15 20 C15 25.61 15 31.22 15 37 C12.20129973 38.39935013 10.09501208 38.25265405 7 38 C5.1875 37 5.1875 37 4 35 C3.46059517 32.31884069 3.22431886 29.7366901 3 27 C1.02 27 -0.96 27 -3 27 C-3.13277344 27.63808594 -3.26554687 28.27617187 -3.40234375 28.93359375 C-3.57894531 29.75988281 -3.75554688 30.58617188 -3.9375 31.4375 C-4.11152344 32.26121094 -4.28554687 33.08492187 -4.46484375 33.93359375 C-5 36 -5 36 -6 37 C-8.67058851 37.14115161 -11.32432238 37.04247107 -14 37 C-15.92541866 32.57955965 -16.70137444 28.35990202 -17.4375 23.62109375 C-17.97922255 21.09681715 -18.80823887 19.26802516 -20 17 C-17.61115478 14.72172034 -15.21273694 12.45377023 -12.8125 10.1875 C-12.13896484 9.54490234 -11.46542969 8.90230469 -10.77148438 8.24023438 C-7.36721056 5.03523512 -4.18053944 2.18362157 0 0 Z " fill="#0B0B0B" transform="translate(20,1)"/>
<path d="M0 0 C0 3 0 3 -1.64453125 5.0078125 C-2.35996094 5.70648438 -3.07539062 6.40515625 -3.8125 7.125 C-4.87404297 8.18074219 -4.87404297 8.18074219 -5.95703125 9.2578125 C-8 11 -8 11 -11 12 C-9.49650623 8.33213607 -7.36271208 6.31089607 -4.375 3.75 C-3.14910156 2.69039062 -3.14910156 2.69039062 -1.8984375 1.609375 C-1.27195312 1.07828125 -0.64546875 0.5471875 0 0 Z " fill="#656565" transform="translate(11,8)"/>
<path d="M0 0 C1.32 0 2.64 0 4 0 C4 4.29 4 8.58 4 13 C3.67 13 3.34 13 3 13 C2.80083984 11.84371094 2.80083984 11.84371094 2.59765625 10.6640625 C2.42105469 9.66117188 2.24445313 8.65828125 2.0625 7.625 C1.88847656 6.62726562 1.71445312 5.62953125 1.53515625 4.6015625 C1.12287938 2.03090344 1.12287938 2.03090344 0 0 Z " fill="#989898" transform="translate(1,20)"/>
</svg>
